<svg xmlns="http://www.w3.org/2000/svg" preserveAspectRatio="xMidYMid meet"  viewBox="0 0 175.1 175"><path fill="#DC0B2D" d="M175 165.1c0 5.4-4.4 9.9-9.9 9.9H9.9c-5.4 0-9.9-4.4-9.9-9.9V9.9C0 4.5 4.4 0 9.9 0h155.3c5.4 0 9.9 4.4 9.9 9.9v155.2h-.1z"/><g fill="#FFF"><path d="M117 144.5h7.1c.2-2.8-.9-5.7-4.1-5.7-2.4 0-5 1.7-5 5.3 0 3.7 2.2 5.7 5.5 5.7 1.1 0 2.4-.4 3.5-1.2l-.5-1c-.7.6-1.9.9-2.9.9-2.1 0-3.6-1.9-3.6-4 0-2.7 1-4.3 3-4.3 1.7 0 2.4 1.4 2.4 3h-5.3l-.1 1.3zM45.8 149.6V139h-1.9v6.2c0 2.1-1.2 3.3-2.7 3.3-1.7 0-2.6-1.1-2.6-3v-6.4h-1.9v6.8c0 2.7 1.3 4 3.7 4 1.4 0 2.3-.6 3.4-1.5l2 1.2zM55.4 139.1v10.6h1.9V144c0-2.3.8-3.3 1.8-3.3.5 0 1 .2 1.4.4l.9-1.2c-.6-.7-1.3-1-1.8-1-.4 0-1.1.3-1.6.8l-.8.8-1.8-1.4zM73.7 149.9c3.1 0 5.2-2.4 5.2-5.7 0-3.4-2.6-5.4-5.2-5.4-2.7 0-5.2 2-5.2 5.4 0 3.3 2.1 5.7 5.2 5.7zm0-9.7c2.4 0 3.2 2.2 3.2 4.1 0 2-.7 4.3-3.2 4.3s-3.1-2.3-3.1-4.3.7-4.1 3.1-4.1zM95.4 147.7c-.8.5-1.7.8-2.6.8-2.6 0-3.7-2.1-3.7-4.3 0-2.9 2-4 3.7-4 .8 0 1.6.3 2.2.6l.6-1.1c-.8-.6-1.8-.9-2.8-.9-4 0-5.7 2.9-5.7 5.5 0 1.5.6 5.6 5.6 5.6.9 0 2.2-.4 3.2-1.1l-.5-1.1zM106.4 149.6v-14.5l-1.9-1.3v15.8M150.1 139.1v10.6h1.9V144c0-2.3.8-3.3 1.8-3.3.5 0 1 .2 1.4.4l.9-1.2c-.6-.7-1.3-1-1.8-1-.4 0-1.1.3-1.6.8l-.8.8-1.8-1.4zM24 138.8c-2.4 0-5 1.7-5 5.3 0 3.7 2.2 5.7 5.5 5.7 1.1 0 2.4-.4 3.5-1.2l-.6-1c-.7.6-1.9.9-2.9.9-2.1 0-3.6-1.9-3.6-4.1H28c.3-2.7-.8-5.6-4-5.6zm-3 4.4c.3-1.9 1.3-3 2.9-3 1.7 0 2.4 1.4 2.4 3H21zM138.7 143.4c.3 3.3-1.5 5-2.8 5-.8 0-1.5-.7-1.5-1.8 0-1.3.9-2.1 2.5-2.6l1.8-.6zm0 4.4c2.1 2.1 1.9 1.8 1.9 1.8v-7.2c0-3.1-2.3-3.6-3.9-3.6-1.5 0-2.6.4-3.6 1.4l.7 1c.8-.6 1.5-1.1 2.8-1.1 1 0 2 .8 2.1 2.1l-2.6.8c-2.2.7-3.8 1.8-3.8 3.7 0 2 1.2 3.3 3 3.3 1 0 1.9-.7 2.6-1.4l.8-.8zM94.5 43.1c-19.4-4.7-41 3.9-49.7 22.7-8.8 18.8-1.8 41.5 14.3 53.4-21-9.8-30.1-34.8-20.3-55.8 9.7-21 34.7-30.1 55.7-20.3zM75.4 126.4c24 1.5 49.5-12.8 56-36.9 6.5-24.2-8.3-50.2-29.8-60.9 27 7.2 44.1 35.5 36.9 62.5-7.3 26.9-36.1 42.5-63.1 35.3z"/><path d="M72.1 62.2c-9.3 9.1-10.7 24.5-3.3 35.9s21.1 15 33.2 10.2c-12.7 8.3-30.6 4.9-38.8-7.8-8.3-12.8-3.8-30.1 8.9-38.3z"/><path d="M85.7 71.1c4.9 1 8.2 5.7 7.2 10.7-1 4.9-5.8 8.2-10.7 7.2S74 83.2 75 78.3c-.1 4.1 3.3 7.4 7.4 7.4 3.4 0 5.9-2.1 7-5.4 1.1-3.7-.3-7.4-3.7-9.2z"/><path d="M98.3 93.2c6.7-6.6 8-17 2.7-25.2s-15.5-11.4-24.2-8c9.2-5.9 22-3.5 28 5.6 5.9 9.2 2.7 21.6-6.5 27.6z"/></g></svg>